<?xml version="1.0" encoding="utf-8"?>
<!-- Generator: Adobe Illustrator 24.3.0, SVG Export Plug-In . SVG Version: 6.00 Build 0)  -->
<svg version="1.1" id="Layer_1" xmlns="http://www.w3.org/2000/svg" xmlns:xlink="http://www.w3.org/1999/xlink" x="0px" y="0px"
	 viewBox="0 0 150 35" style="enable-background:new 0 0 150 35;" xml:space="preserve">
<g id="Layer_2_1_">
</g>
<g id="Layer_3">
	<g>
		<g>
			<polygon points="30,26.447 57.856,26.447 57.856,29.813 30,29.813 			"/>
		</g>
		<path d="M50.304,5.167h-4.868v14.046h3.366V8h1.356c1.574,0,2.47,0.751,2.47,2.107c0,1.332-0.896,2.107-2.47,2.107H49.94v2.833
			h0.363c3.632,0,5.763-1.829,5.763-4.94C56.067,6.935,53.936,5.167,50.304,5.167L50.304,5.167z"/>
		<polygon points="36.412,5.167 31.73,19.213 35.12,19.213 38.301,9.285 39.895,14.248 37.833,14.248 37.009,17.081 40.805,17.081 
			41.489,19.213 44.976,19.213 40.294,5.167 		"/>
		<path d="M87.381,16.677h1.195L87.978,13.4h-0.021L87.381,16.677L87.381,16.677L87.381,16.677z M86.907,19.212h-1.196l1.567-7.049
			H88.7l1.567,7.049H89.03l-0.289-1.587h-1.525L86.907,19.212L86.907,19.212L86.907,19.212z"/>
		<path d="M94.018,13.626c-0.866,0.33-0.866,0.33-0.866,0.33c-0.144-0.618-0.412-0.866-0.804-0.866
			c-0.412,0-0.618,0.268-0.618,0.721c0,1.278,2.35,1.422,2.35,3.525c0,1.257-0.68,1.979-1.773,1.979
			c-0.907,0-1.669-0.618-1.834-1.69c0.948-0.309,0.948-0.309,0.948-0.309c0.144,0.701,0.474,0.969,0.845,0.969
			c0.453,0,0.66-0.247,0.66-0.763c0-1.484-2.391-1.546-2.391-3.607c0-1.051,0.618-1.855,1.69-1.855
			C93.235,12.06,93.771,12.678,94.018,13.626L94.018,13.626L94.018,13.626z"/>
		<path d="M97.934,13.626c-0.866,0.33-0.866,0.33-0.866,0.33c-0.144-0.618-0.412-0.866-0.804-0.866
			c-0.412,0-0.618,0.268-0.618,0.721c0,1.278,2.329,1.422,2.329,3.525c0,1.257-0.68,1.979-1.752,1.979
			c-0.907,0-1.67-0.618-1.834-1.69c0.948-0.309,0.948-0.309,0.948-0.309c0.144,0.701,0.474,0.969,0.845,0.969
			c0.454,0,0.66-0.247,0.66-0.763c0-1.484-2.391-1.546-2.391-3.607c0-1.051,0.618-1.855,1.69-1.855
			C97.131,12.06,97.687,12.678,97.934,13.626L97.934,13.626L97.934,13.626z"/>
		<path d="M101.212,14.265c0-0.845-0.227-1.134-0.742-1.134s-0.763,0.289-0.763,1.134c0,2.824,0,2.824,0,2.824
			c0,0.866,0.227,1.175,0.742,1.175c0.536,0,0.763-0.309,0.763-1.175V14.265L101.212,14.265z M102.428,14.265
			c0,2.824,0,2.824,0,2.824c0,1.422-0.68,2.226-1.979,2.226c-1.278,0-1.937-0.804-1.937-2.226c0-2.824,0-2.824,0-2.824
			c0-1.402,0.659-2.205,1.937-2.205C101.747,12.06,102.428,12.863,102.428,14.265L102.428,14.265L102.428,14.265z"/>
		<path d="M106.653,13.688c-0.907,0.289-0.907,0.289-0.907,0.289c-0.103-0.577-0.33-0.845-0.721-0.845
			c-0.474,0-0.701,0.371-0.701,1.092c0,3.051,0,3.051,0,3.051c0,0.618,0.206,0.989,0.701,0.989c0.392,0,0.598-0.227,0.701-0.907
			c0.948,0.289,0.948,0.289,0.948,0.289c-0.186,1.175-0.763,1.67-1.752,1.67c-1.134,0-1.814-0.804-1.814-2.041
			c0-3.051,0-3.051,0-3.051c0-1.36,0.701-2.164,1.835-2.164C105.87,12.06,106.509,12.719,106.653,13.688L106.653,13.688
			L106.653,13.688z"/>
		<polygon points="108.632,12.163 108.632,19.212 107.436,19.212 107.436,12.163 108.632,12.163 		"/>
		<path d="M110.94,16.677h1.195l-0.577-3.277h-0.02L110.94,16.677L110.94,16.677L110.94,16.677z M110.487,19.212h-1.216l1.566-7.049
			h1.422l1.587,7.049h-1.237l-0.309-1.587h-1.525L110.487,19.212L110.487,19.212L110.487,19.212z"/>
		<polygon points="117.227,12.163 117.227,13.276 116.031,13.276 116.031,19.212 114.815,19.212 114.815,13.276 113.62,13.276 
			113.62,12.163 117.227,12.163 		"/>
		<polygon points="120.978,12.163 120.978,13.276 119.02,13.276 119.02,15.069 120.546,15.069 120.546,16.058 119.02,16.058 
			119.02,18.119 121.061,18.119 121.061,19.212 117.825,19.212 117.825,12.163 120.978,12.163 		"/>
		<path d="M123.699,13.255c-0.721,0-0.721,0-0.721,0c0,4.885,0,4.885,0,4.885c0.721,0,0.721,0,0.721,0
			c0.537,0,0.784-0.289,0.784-1.175c0-2.535,0-2.535,0-2.535C124.482,13.544,124.235,13.255,123.699,13.255L123.699,13.255
			L123.699,13.255z M123.699,12.163c1.258,0,1.999,0.824,1.999,2.206c0,2.618,0,2.618,0,2.618c0,1.401-0.742,2.226-1.999,2.226
			c-1.937,0-1.937,0-1.937,0c0-7.049,0-7.049,0-7.049L123.699,12.163L123.699,12.163z"/>
		<path d="M129.223,15.667c0.681,0,0.681,0,0.681,0c0.433,0,0.597-0.33,0.597-1.237c0-0.928-0.165-1.195-0.597-1.195
			c-0.681,0-0.681,0-0.681,0V15.667L129.223,15.667z M131.717,14.409c0,1.443-0.619,2.246-1.711,2.246c-0.784,0-0.784,0-0.784,0
			c0,2.556,0,2.556,0,2.556c-1.195,0-1.195,0-1.195,0c0-7.049,0-7.049,0-7.049c1.917,0,1.917,0,1.917,0
			C131.078,12.163,131.717,12.946,131.717,14.409L131.717,14.409L131.717,14.409z"/>
		<path d="M133.613,15.337c0.577,0,0.577,0,0.577,0c0.494,0,0.639-0.288,0.639-1.072c0-0.824-0.185-1.031-0.639-1.031
			c-0.577,0-0.577,0-0.577,0V15.337L133.613,15.337z M134.108,16.326c-0.494,0-0.494,0-0.494,0c0,2.886,0,2.886,0,2.886
			c-1.196,0-1.196,0-1.196,0c0-7.049,0-7.049,0-7.049c1.855,0,1.855,0,1.855,0c1.216,0,1.752,0.701,1.752,1.999
			c0,1.01-0.288,1.608-0.865,1.855c1.154,3.195,1.154,3.195,1.154,3.195c-1.278,0-1.278,0-1.278,0L134.108,16.326L134.108,16.326z"
			/>
		<polygon points="140.044,12.163 140.044,13.276 138.086,13.276 138.086,15.069 139.591,15.069 139.591,16.058 138.086,16.058 
			138.086,18.119 140.126,18.119 140.126,19.212 136.89,19.212 136.89,12.163 140.044,12.163 		"/>
		<path d="M144.022,13.626c-0.865,0.33-0.865,0.33-0.865,0.33c-0.144-0.618-0.412-0.866-0.783-0.866c-0.434,0-0.64,0.268-0.64,0.721
			c0,1.278,2.349,1.422,2.349,3.525c0,1.257-0.68,1.979-1.772,1.979c-0.907,0-1.67-0.618-1.835-1.69
			c0.949-0.309,0.949-0.309,0.949-0.309c0.144,0.701,0.474,0.969,0.845,0.969c0.454,0,0.66-0.247,0.66-0.763
			c0-1.484-2.391-1.546-2.391-3.607c0-1.051,0.618-1.855,1.689-1.855C143.239,12.06,143.795,12.678,144.022,13.626L144.022,13.626
			L144.022,13.626z"/>
		<path d="M147.938,13.626c-0.865,0.33-0.865,0.33-0.865,0.33c-0.144-0.618-0.412-0.866-0.803-0.866
			c-0.413,0-0.619,0.268-0.619,0.721c0,1.278,2.35,1.422,2.35,3.525c0,1.257-0.681,1.979-1.773,1.979
			c-0.907,0-1.67-0.618-1.834-1.69c0.948-0.309,0.948-0.309,0.948-0.309c0.144,0.701,0.474,0.969,0.846,0.969
			c0.453,0,0.659-0.247,0.659-0.763c0-1.484-2.391-1.546-2.391-3.607c0-1.051,0.618-1.855,1.689-1.855
			C147.134,12.06,147.691,12.678,147.938,13.626L147.938,13.626L147.938,13.626z"/>
	</g>
</g>
</svg>
